<?xml version="1.0" encoding="UTF-8" standalone="no"?>
<!-- Created with Inkscape (http://www.inkscape.org/) -->

<svg
   width="170mm"
   height="45.145676mm"
   viewBox="0 0 170 45.145676"
   version="1.1"
   id="svg1"
   xml:space="preserve"
   xmlns="http://www.w3.org/2000/svg"
   xmlns:svg="http://www.w3.org/2000/svg"><defs
     id="defs1" /><g
     id="layer1"><path
       style="fill:#000000"
       d="m 98.682927,33.165358 c -2.032615,-0.383086 -5.075158,-2.209171 -9.063062,-5.4395 l -0.874037,-0.707998 -1.34161,0.719127 c -1.681911,0.901534 -3.660151,1.168792 -4.626016,0.624967 -1.086163,-0.611558 -1.565588,-1.464568 -1.450987,-2.581649 0.256818,-2.503345 2.517982,-2.894289 5.818368,-1.005967 l 1.442786,0.825493 0.821796,-1.005609 c 0.451988,-0.553084 2.132533,-2.783219 3.734544,-4.955855 1.602011,-2.172635 4.229783,-5.393991 5.839493,-7.158567 L 101.91095,9.2714782 100.91369,9.0386106 C 98.547948,8.4861927 96.808422,8.3127665 94.455468,8.3947426 92.226009,8.4724161 91.825626,8.5498492 90.87716,9.086779 c -2.041605,1.155759 -2.460782,2.462436 -1.212526,3.779737 0.865625,0.913507 0.902103,1.128642 0.19137,1.128642 -0.71304,0 -1.658282,-1.061152 -1.928677,-2.165182 -0.737179,-3.0099122 1.926815,-5.2796423 6.194624,-5.2778379 1.670748,7.063e-4 2.986139,0.2808934 6.463199,1.3767026 l 2.21319,0.6974979 0.68924,-0.5620031 c 1.144,-0.9328046 1.96757,-1.2924847 2.95944,-1.2924847 1.58067,0 2.22557,1.1177941 1.34674,2.3342649 -0.60146,0.8325422 -1.67511,1.0944243 -3.31091,0.8075904 l -1.33955,-0.2348852 -0.78135,0.9730951 c -0.42974,0.535202 -1.92311,2.596664 -3.318602,4.581026 -2.690887,3.8264 -5.863505,7.571946 -8.237528,9.725101 l -1.439846,1.30589 1.911525,1.212366 c 5.302139,3.362829 7.85866,4.310165 10.521791,3.898922 2.13561,-0.329781 3.09835,-0.985373 3.52784,-2.40232 0.31349,-1.034236 0.81921,-0.999967 0.81921,0.05551 0,1.70661 -1.32596,3.392548 -3.08645,3.924368 -1.1693,0.353229 -3.126363,0.448279 -4.376963,0.212579 z M 86.744041,26.871244 c 0.523776,-0.276074 0.893964,-0.604761 0.822638,-0.730417 -0.256894,-0.452578 -2.273483,-1.306344 -3.090672,-1.308502 -1.71064,-0.0045 -2.374528,1.387849 -1.082714,2.270767 0.831019,0.567979 1.984742,0.488149 3.350748,-0.231848 z M 107.04457,8.766034 c 0.34584,-0.596955 0.0107,-1.0912698 -0.73994,-1.0912698 -0.66995,0 -2.3853,1.0363799 -2.14621,1.2967011 0.2147,0.2337723 1.66933,0.4235997 2.17938,0.2844061 0.27633,-0.075414 0.59438,-0.2958406 0.70677,-0.4898374 z M 53.058523,30.164675 c -1.337562,-0.392673 -2.728671,-1.335867 -3.594337,-2.437017 -2.450815,-3.117502 -2.271319,-9.196363 0.416752,-14.113879 0.57733,-1.056158 0.593662,-1.172849 0.597166,-4.2667321 0.0027,-2.348632 0.07755,-3.2781703 0.28624,-3.5527362 0.495099,-0.6513918 0.685767,-0.1762577 0.53685,1.337803 -0.07807,0.7936972 -0.07753,2.0043861 0.0012,2.6904198 l 0.143133,1.2473335 1.336707,-1.3336246 c 3.501982,-3.4939073 8.306532,-4.6264806 11.764123,-2.7731489 2.397211,1.2849484 3.531601,3.5385015 3.062213,6.0833235 -1.26767,6.872765 -11.429894,8.648118 -15.449824,2.699104 l -0.603453,-0.893038 -0.273867,0.530683 c -0.592776,1.148645 -1.350676,4.233688 -1.461282,5.948164 -0.195999,3.038157 0.610099,5.481478 2.240551,6.791215 1.970628,1.582999 5.513638,1.594514 8.473904,0.02754 1.385014,-0.733137 3.494355,-3.151334 4.460772,-5.113932 1.406524,-2.856365 2.409537,-4.171363 3.710173,-4.864217 2.415142,-1.286555 3.877745,0.17595 2.493625,2.493456 -0.687743,1.151525 -1.764261,1.976606 -3.235433,2.479751 -1.237622,0.423269 -1.406471,0.665972 -1.412121,2.029774 -0.0068,1.631624 1.14934,2.143573 2.53146,1.120992 0.879883,-0.650994 1.62662,-1.777608 2.76694,-4.174531 1.788152,-3.758647 4.852442,-5.659057 6.013607,-3.729516 0.278759,0.463224 0.292343,0.683903 0.08433,1.370147 -0.482401,1.591498 -1.783086,2.776129 -3.832098,3.490175 -1.018572,0.354955 -1.133062,0.532376 -1.13707,1.76207 -0.0042,1.27749 0.292198,1.84742 0.960649,1.84742 1.044309,0 2.166603,-0.935386 3.217037,-2.681271 0.551137,-0.916021 1.002067,-1.754037 1.002067,-1.862259 0,-0.108221 0.139939,-0.196766 0.310975,-0.196766 0.454388,0 0.388833,0.340974 -0.362805,1.887094 -1.30989,2.694445 -3.053251,3.989262 -4.871224,3.61792 -0.948132,-0.193667 -1.91841,-1.199198 -1.91841,-1.988112 0,-0.550282 -0.05196,-0.52253 -0.984756,0.525923 -1.931609,2.171115 -4.581906,2.037548 -5.309739,-0.267594 l -0.263619,-0.834915 -0.642646,0.992698 c -0.744661,1.150279 -2.336458,2.581437 -3.619224,3.253983 -2.113271,1.107973 -5.322777,1.477439 -7.438566,0.8563 z m 15.933156,-8.317831 c 0.374387,-0.246833 0.91082,-0.817509 1.192074,-1.268168 0.51099,-0.818772 0.695077,-2.068951 0.304649,-2.068951 -0.553819,0 -3.110353,3.229241 -3.110353,3.928788 0,0.233982 0.814051,-0.06451 1.61363,-0.591669 z m 6.057101,0.195154 c 1.356242,-0.753217 2.469049,-2.740072 1.888628,-3.372039 -0.177938,-0.19374 -0.533731,0.08389 -1.425675,1.112463 -1.359342,1.567573 -2.09362,2.794076 -1.666747,2.784055 0.148977,-0.0035 0.690685,-0.239513 1.203794,-0.524479 z M 61.811478,17.915833 c 2.820991,-0.966449 4.800334,-3.87968 4.435544,-6.52831 C 66.076017,10.145907 65.083518,8.7659793 63.879322,8.095572 63.081383,7.6513388 62.608031,7.5619 61.054878,7.5619 c -1.718449,0 -1.988691,0.064434 -3.420732,0.815615 -1.911355,1.0026058 -3.39363,2.277211 -4.55606,3.917744 -0.842585,1.189137 -0.871902,1.281525 -0.618236,1.948313 0.382715,1.006009 2.010142,2.737275 3.122223,3.321436 1.696308,0.891049 4.235175,1.034031 6.229405,0.350825 z m 35.212912,9.713604 c 0,-0.51727 7.07785,-15.635953 7.57177,-16.173723 0.41634,-0.453304 0.77689,-0.620753 1.33658,-0.620753 0.42155,0 0.81816,0.05631 0.88136,0.125123 0.0632,0.06882 -0.23755,0.703679 -0.66835,1.410802 -0.74598,1.224477 -1.8405,3.347309 -4.03095,7.818106 l -0.98864,2.017858 1.06569,-1.043236 c 1.20448,-1.179103 3.30959,-2.524252 4.3173,-2.758718 0.37058,-0.08622 0.67378,-0.09635 0.67378,-0.0225 0,0.07385 -0.55256,1.334448 -1.22791,2.801332 -1.25592,2.727905 -2.0115,5.041184 -1.77987,5.449251 0.4687,0.825728 2.04147,-1.042259 3.30266,-3.922582 0.52218,-1.192561 1.29281,-2.582146 1.71251,-3.087965 1.79098,-2.158442 4.02871,-2.411753 4.74796,-0.537468 0.40733,1.061455 0.36646,2.370828 -0.11726,3.756944 -0.31576,0.904815 -0.3517,1.217627 -0.15549,1.353335 0.35929,0.2485 0.5059,0.228951 1.19571,-0.159441 0.44757,-0.252003 0.85647,-0.895045 1.54301,-2.42658 1.60742,-3.585844 1.5788,-3.550954 2.91345,-3.550954 h 1.15306 l -0.62289,0.846481 c -0.94292,1.281376 -2.92104,5.970378 -2.92104,6.924115 0,1.086018 0.51476,1.072317 1.48028,-0.0394 1.01991,-1.174341 1.41495,-1.849382 2.67498,-4.570999 1.43148,-3.091942 1.49019,-3.160197 2.71833,-3.160197 0.55245,0 1.00446,0.05674 1.00446,0.1261 0,0.06936 -0.27298,0.501061 -0.60661,0.959346 -0.9921,1.362769 -2.56119,5.004701 -2.66711,6.190497 -0.0768,0.859975 -0.0265,1.097204 0.25777,1.215988 0.58381,0.243928 1.40502,-0.63778 2.30352,-2.473225 0.96272,-1.966623 1.02307,-2.052218 1.31062,-1.858723 0.51305,0.345245 -1.68353,4.425822 -2.68638,4.990472 -1.36567,0.768933 -2.6801,0.08203 -2.6801,-1.400596 v -0.742691 l -1.10015,1.236711 c -0.97376,1.09463 -1.19588,1.236712 -1.93338,1.236712 -1.17532,0 -1.81098,-0.755777 -1.70012,-2.02141 0.0668,-0.762679 0.0258,-0.896563 -0.23605,-0.770834 -0.17429,0.08369 -0.72184,0.168196 -1.21677,0.187799 -0.7559,0.02994 -1.00468,0.166703 -1.55488,0.854769 -1.8322,2.291305 -4.42714,2.376017 -4.83459,0.157826 -0.11986,-0.652516 -0.48504,-1.164032 -0.48504,-0.679406 0,0.476966 -1.49713,2.027014 -2.2027,2.280551 -1.46766,0.527388 -2.56204,-0.648615 -2.2633,-2.432113 0.0783,-0.467634 0.51176,-1.600413 0.96318,-2.517286 0.45141,-0.916874 0.7782,-1.713376 0.72619,-1.770005 -0.48007,-0.522709 -3.35554,2.684958 -4.566243,5.093785 -0.446812,0.888978 -0.924937,1.616324 -1.0625,1.616324 -0.137563,0 -0.541655,0.06349 -0.897981,0.14108 -0.356326,0.07759 -0.647866,0.05487 -0.647866,-0.0505 z m 13.99728,-1.704184 c 1.11224,-1.06329 1.35764,-1.708172 1.08038,-2.839173 -0.31214,-1.273303 0.0433,-2.19187 0.78814,-2.036838 0.44436,0.09249 0.51225,0.02434 0.51225,-0.514256 0,-0.862652 -0.63502,-1.671353 -1.16783,-1.48723 -0.65096,0.224956 -1.72114,1.479594 -2.27241,2.664089 -0.5824,1.251378 -1.14463,3.436535 -1.00769,3.916502 0.0519,0.181728 0.13799,0.482781 0.19142,0.669007 0.162,0.564583 1.08811,0.380866 1.87574,-0.372101 z"
       id="path1" /></g></svg>
